<svg xmlns="http://www.w3.org/2000/svg" width="170.909" height="57.253" viewBox="0 0 170.909 57.253">
  <g id="play-store" transform="translate(-1448 -4997)">
    <g id="Group_2566" data-name="Group 2566" transform="translate(1240.173 4963.332)">
      <path id="Path_5462" data-name="Path 5462" d="M370.27,90.921H216.294a8.476,8.476,0,0,1-8.467-8.467V42.135a8.477,8.477,0,0,1,8.467-8.467H370.27a8.477,8.477,0,0,1,8.466,8.467V82.454A8.476,8.476,0,0,1,370.27,90.921ZM216.294,35.668a6.474,6.474,0,0,0-6.467,6.467V82.454a6.474,6.474,0,0,0,6.467,6.467H370.27a6.473,6.473,0,0,0,6.466-6.467V42.135a6.473,6.473,0,0,0-6.466-6.467Z" fill="#fff"/>
    </g>
    <g id="Group_2567" data-name="Group 2567" transform="translate(1240.173 4963.332)">
      <path id="Path_5463" data-name="Path 5463" d="M264.622,50.38h-1.136a7.479,7.479,0,0,0-.322-1.327h-1.639a6.8,6.8,0,0,0-.334,1.327h-1.068q0-.14.829-2.271a17.807,17.807,0,0,0,.828-2.348h1.341a19.542,19.542,0,0,0,.75,2.314A20.458,20.458,0,0,1,264.622,50.38Zm-1.639-2.005a19.9,19.9,0,0,1-.607-1.979h-.057q0,.138-.628,1.979Z" fill="#fff"/>
      <path id="Path_5464" data-name="Path 5464" d="M269.2,50.38h-.876a8.729,8.729,0,0,0-.976-1.537,8.465,8.465,0,0,1-1.164-2h-.056a12.5,12.5,0,0,1,.088,1.4q0,.876.05,2.136h-.873q.054-1.1.054-2.416,0-1.294-.054-2.2h1.054a6.69,6.69,0,0,0,.876,1.5,8.9,8.9,0,0,1,1.072,1.891h.053a13.316,13.316,0,0,1-.085-1.419q0-.962-.05-1.972h.887q-.05.879-.05,2.2T269.2,50.38Z" fill="#fff"/>
      <path id="Path_5465" data-name="Path 5465" d="M274.338,47.91a2.619,2.619,0,0,1-.646,1.76,2.255,2.255,0,0,1-1.809.752q-.525,0-1.448-.042.047-1.073.046-2.416,0-1.292-.046-2.2h.621c.1,0,.253,0,.454-.011s.332-.011.394-.011a2.389,2.389,0,0,1,1.857.639A2.211,2.211,0,0,1,274.338,47.91Zm-.969.153a1.709,1.709,0,0,0-.4-1.148,1.51,1.51,0,0,0-1.213-.466,3.8,3.8,0,0,0-.419.032q.035.709.035,1.483,0,.847.036,1.681a2.325,2.325,0,0,0,.461.046,1.343,1.343,0,0,0,1.13-.473A1.828,1.828,0,0,0,273.369,48.063Z" fill="#fff"/>
      <path id="Path_5466" data-name="Path 5466" d="M279.079,50.38h-1.05a6.981,6.981,0,0,0-.632-1.551.828.828,0,0,0-.709-.294c-.138,0-.269,0-.394,0q0,.912.032,1.842h-.986q.045-1.073.046-2.416,0-1.292-.046-2.2h.613c.071,0,.22,0,.445-.011s.435-.011.627-.011q1.627,0,1.628,1.114a1.248,1.248,0,0,1-.93,1.231v.054a1.1,1.1,0,0,1,.628.558A12.435,12.435,0,0,1,279.079,50.38Zm-1.331-3.264q0-.707-.908-.706a3.127,3.127,0,0,0-.589.05q.039.549.039,1.433c.13,0,.24.007.33.007Q277.748,47.9,277.748,47.116Z" fill="#fff"/>
      <path id="Path_5467" data-name="Path 5467" d="M284.164,47.985a2.551,2.551,0,0,1-.667,1.806,2.163,2.163,0,0,1-1.65.716,2.085,2.085,0,0,1-1.568-.658,2.315,2.315,0,0,1-.631-1.672,2.547,2.547,0,0,1,.667-1.806,2.161,2.161,0,0,1,1.649-.717,2.086,2.086,0,0,1,1.568.657A2.314,2.314,0,0,1,284.164,47.985Zm-.979.1a1.834,1.834,0,0,0-.38-1.2,1.169,1.169,0,0,0-.937-.461,1.081,1.081,0,0,0-.879.465,1.849,1.849,0,0,0-.362,1.174,1.829,1.829,0,0,0,.381,1.2,1.167,1.167,0,0,0,.935.463,1.082,1.082,0,0,0,.88-.467A1.855,1.855,0,0,0,283.185,48.088Z" fill="#fff"/>
      <path id="Path_5468" data-name="Path 5468" d="M286.169,50.38h-1q.045-1.1.046-2.416,0-1.294-.046-2.2h1q-.045.894-.046,2.2Q286.123,49.3,286.169,50.38Z" fill="#fff"/>
      <path id="Path_5469" data-name="Path 5469" d="M291.311,47.91a2.618,2.618,0,0,1-.645,1.76,2.255,2.255,0,0,1-1.809.752q-.526,0-1.448-.042.047-1.073.046-2.416,0-1.292-.046-2.2h.621c.1,0,.253,0,.454-.011s.332-.011.394-.011a2.392,2.392,0,0,1,1.857.639A2.21,2.21,0,0,1,291.311,47.91Zm-.968.153a1.715,1.715,0,0,0-.4-1.148,1.511,1.511,0,0,0-1.214-.466,3.8,3.8,0,0,0-.418.032q.035.709.035,1.483,0,.847.036,1.681a2.318,2.318,0,0,0,.461.046,1.343,1.343,0,0,0,1.13-.473A1.834,1.834,0,0,0,290.343,48.063Z" fill="#fff"/>
      <path id="Path_5470" data-name="Path 5470" d="M298.133,50.38H297a7.426,7.426,0,0,0-.323-1.327h-1.639a6.848,6.848,0,0,0-.333,1.327h-1.068q0-.14.829-2.271a17.8,17.8,0,0,0,.828-2.348h1.341a19.542,19.542,0,0,0,.75,2.314A20.458,20.458,0,0,1,298.133,50.38Zm-1.639-2.005a19.9,19.9,0,0,1-.607-1.979h-.057a20.754,20.754,0,0,1-.628,1.979Z" fill="#fff"/>
      <path id="Path_5471" data-name="Path 5471" d="M302.271,46.97a1.384,1.384,0,0,1-.63,1.253,2.807,2.807,0,0,1-1.545.4c-.111,0-.19,0-.238-.007q0,.667.039,1.76h-1q.047-1.026.047-2.416,0-1.278-.047-2.2h.618c.087,0,.255,0,.5-.011s.464-.011.646-.011a2.036,2.036,0,0,1,1.139.305A1.034,1.034,0,0,1,302.271,46.97Zm-.916.2q0-.76-1.007-.76a2.807,2.807,0,0,0-.532.054q.039.671.039,1.518c.059.005.127.007.2.007Q301.356,47.985,301.355,47.166Z" fill="#fff"/>
      <path id="Path_5472" data-name="Path 5472" d="M306.525,46.97a1.385,1.385,0,0,1-.629,1.253,2.807,2.807,0,0,1-1.545.4c-.112,0-.191,0-.238-.007q0,.667.039,1.76h-1q.047-1.026.046-2.416,0-1.278-.046-2.2h.617c.088,0,.256,0,.5-.011s.464-.011.646-.011a2.036,2.036,0,0,1,1.139.305A1.035,1.035,0,0,1,306.525,46.97Zm-.915.2q0-.76-1.007-.76a2.825,2.825,0,0,0-.533.054c.027.447.039.953.039,1.518.059.005.128.007.206.007Q305.611,47.985,305.61,47.166Z" fill="#fff"/>
      <path id="Path_5473" data-name="Path 5473" d="M313.481,47.985a2.55,2.55,0,0,1-.666,1.806,2.163,2.163,0,0,1-1.65.716,2.085,2.085,0,0,1-1.568-.658,2.315,2.315,0,0,1-.631-1.672,2.547,2.547,0,0,1,.667-1.806,2.161,2.161,0,0,1,1.649-.717,2.087,2.087,0,0,1,1.568.657A2.313,2.313,0,0,1,313.481,47.985Zm-.979.1a1.834,1.834,0,0,0-.379-1.2,1.169,1.169,0,0,0-.937-.461,1.081,1.081,0,0,0-.879.465,1.849,1.849,0,0,0-.362,1.174,1.829,1.829,0,0,0,.381,1.2,1.167,1.167,0,0,0,.935.463,1.083,1.083,0,0,0,.88-.467A1.855,1.855,0,0,0,312.5,48.088Z" fill="#fff"/>
      <path id="Path_5474" data-name="Path 5474" d="M318.29,50.38h-.876a8.656,8.656,0,0,0-.976-1.537,8.411,8.411,0,0,1-1.163-2h-.057a12.522,12.522,0,0,1,.089,1.4q0,.876.049,2.136h-.872q.053-1.1.053-2.416,0-1.294-.053-2.2h1.053a6.691,6.691,0,0,0,.876,1.5,8.9,8.9,0,0,1,1.072,1.891h.053a13.316,13.316,0,0,1-.085-1.419q0-.962-.05-1.972h.887q-.05.879-.05,2.2T318.29,50.38Z" fill="#fff"/>
    </g>
    <g id="Group_2568" data-name="Group 2568" transform="translate(1240.173 4963.332)">
      <path id="Path_5475" data-name="Path 5475" d="M276.44,65.178a7.4,7.4,0,0,1-2.04,5.478,7.951,7.951,0,0,1-6.029,2.431,8.574,8.574,0,1,1,0-17.147,8.458,8.458,0,0,1,3.37.687,6.759,6.759,0,0,1,2.568,1.834L272.864,59.9a5.539,5.539,0,0,0-4.493-1.949,6.557,6.557,0,0,0,0,13.113,6.22,6.22,0,0,0,4.585-1.834,5.149,5.149,0,0,0,1.375-3.324h-5.96V63.94h7.955A7.073,7.073,0,0,1,276.44,65.178Z" fill="#fff"/>
      <path id="Path_5476" data-name="Path 5476" d="M278.939,62.828a5.895,5.895,0,0,1,8.3,0,6.431,6.431,0,0,1,0,8.551,5.895,5.895,0,0,1-8.3,0,6.428,6.428,0,0,1,0-8.551Zm1.571,7.221a3.547,3.547,0,0,0,5.158,0,4.529,4.529,0,0,0,0-5.892,3.549,3.549,0,0,0-5.158,0,4.529,4.529,0,0,0,0,5.892Z" fill="#fff"/>
      <path id="Path_5477" data-name="Path 5477" d="M291.2,62.828a5.894,5.894,0,0,1,8.3,0,6.431,6.431,0,0,1,0,8.551,5.894,5.894,0,0,1-8.3,0,6.428,6.428,0,0,1,0-8.551Zm1.57,7.221a3.548,3.548,0,0,0,5.159,0,4.533,4.533,0,0,0,0-5.892,3.55,3.55,0,0,0-5.159,0,4.529,4.529,0,0,0,0,5.892Z" fill="#fff"/>
      <path id="Path_5478" data-name="Path 5478" d="M307.366,78.038a5.091,5.091,0,0,1-3.256-1,5.85,5.85,0,0,1-1.81-2.281l1.926-.8a3.151,3.151,0,0,0,1.18,1.535,3.264,3.264,0,0,0,1.96.619,3.608,3.608,0,0,0,2.739-1.043,3.923,3.923,0,0,0,1-2.831V71.161h-.091a4.3,4.3,0,0,1-1.559,1.375,4.663,4.663,0,0,1-2.269.551,4.938,4.938,0,0,1-3.76-1.72,6.537,6.537,0,0,1,0-8.528,4.941,4.941,0,0,1,3.76-1.719,4.674,4.674,0,0,1,2.269.55,4.3,4.3,0,0,1,1.559,1.376h.091v-1.56h2.018v10.66a5.6,5.6,0,0,1-1.674,4.391A5.893,5.893,0,0,1,307.366,78.038Zm.16-6.877a3.363,3.363,0,0,0,2.534-1.1,4.717,4.717,0,0,0,0-5.914,3.442,3.442,0,0,0-5.055.011,4.641,4.641,0,0,0,0,5.892A3.353,3.353,0,0,0,307.526,71.161Z" fill="#fff"/>
      <path id="Path_5479" data-name="Path 5479" d="M317.223,72.72h-2.109V56.306h2.109Z" fill="#fff"/>
      <path id="Path_5480" data-name="Path 5480" d="M324.191,73.087a5.415,5.415,0,0,1-4.137-1.7A6.01,6.01,0,0,1,318.46,67.1a6.186,6.186,0,0,1,1.548-4.219,5.024,5.024,0,0,1,3.954-1.765,5.181,5.181,0,0,1,4,1.628,6.172,6.172,0,0,1,1.5,4.356l-.023.389h-8.872a3.812,3.812,0,0,0,1.135,2.682,3.441,3.441,0,0,0,2.441.986,3.027,3.027,0,0,0,3.073-1.926l1.879.78a5.038,5.038,0,0,1-1.811,2.189A5.266,5.266,0,0,1,324.191,73.087Zm3.027-7.336a2.994,2.994,0,0,0-.883-1.834,3.155,3.155,0,0,0-2.419-.871,3.024,3.024,0,0,0-2.028.733,3.748,3.748,0,0,0-1.181,1.972Z" fill="#fff"/>
      <path id="Path_5481" data-name="Path 5481" d="M337.763,72.72h-2.11V56.306h5.594a5.191,5.191,0,0,1,3.61,1.386,4.771,4.771,0,0,1,0,6.993,5.186,5.186,0,0,1-3.61,1.386h-3.484Zm0-8.665h3.53a2.726,2.726,0,0,0,2.132-.9,2.823,2.823,0,0,0,0-3.942,2.723,2.723,0,0,0-2.132-.895h-3.53Z" fill="#fff"/>
      <path id="Path_5482" data-name="Path 5482" d="M349.866,72.72h-2.108V56.306h2.108Z" fill="#fff"/>
      <path id="Path_5483" data-name="Path 5483" d="M355.3,73.087a4.434,4.434,0,0,1-2.991-1.032,3.415,3.415,0,0,1-1.205-2.728,3.372,3.372,0,0,1,1.422-2.877,5.77,5.77,0,0,1,3.507-1.043,6.036,6.036,0,0,1,3.049.688v-.322a2.5,2.5,0,0,0-.848-1.982,3.045,3.045,0,0,0-2.086-.745,3.234,3.234,0,0,0-1.662.435,2.242,2.242,0,0,0-1.02,1.192l-1.926-.825a4.365,4.365,0,0,1,1.536-1.868,4.914,4.914,0,0,1,3.027-.86,5.2,5.2,0,0,1,3.576,1.261,4.5,4.5,0,0,1,1.421,3.554V72.72h-2.018V71.161h-.091A4.137,4.137,0,0,1,355.3,73.087Zm.344-1.926a3.435,3.435,0,0,0,2.373-.975,3.018,3.018,0,0,0,1.065-2.3,4.158,4.158,0,0,0-2.682-.734,3.486,3.486,0,0,0-2.315.665,2,2,0,0,0-.779,1.559,1.5,1.5,0,0,0,.711,1.307A2.833,2.833,0,0,0,355.643,71.161Z" fill="#fff"/>
      <path id="Path_5484" data-name="Path 5484" d="M365.685,77.671h-2.178l2.613-5.662-4.631-10.523h2.292l3.348,8.071h.046l3.255-8.071h2.292Z" fill="#fff"/>
    </g>
    <g id="Group_2569" data-name="Group 2569" transform="translate(1240.173 4963.332)">
      <path id="Path_5485" data-name="Path 5485" d="M220.505,64.234q0-7.863,0-15.728a2.361,2.361,0,0,1,.58-1.717c.177-.189.305-.239.522-.018q5.292,5.4,10.6,10.783,3.435,3.489,6.877,6.97c.223.225.242.343.006.578q-8.433,8.387-16.843,16.8a.579.579,0,0,1-.911.054,2.14,2.14,0,0,1-.83-1.817q0-4.658-.006-9.316,0-3.292,0-6.586Z" fill="#fff"/>
      <path id="Path_5486" data-name="Path 5486" d="M222.521,46.191a1.917,1.917,0,0,1,1.022.284q10.77,6.035,21.544,12.063c.331.185.324.288.069.539q-2.409,2.37-4.791,4.766c-.172.172-.277.272-.507.037q-8.569-8.739-17.153-17.463C222.657,46.368,222.618,46.311,222.521,46.191Z" fill="#fff"/>
      <path id="Path_5487" data-name="Path 5487" d="M224.128,81.766q7.816-7.9,15.626-15.813c.323-.328.473-.284.762.017,1.321,1.376,2.662,2.733,4.008,4.083.237.237.257.334-.065.51Q234.424,76.057,224.4,81.569A2.766,2.766,0,0,0,224.128,81.766Z" fill="#fff"/>
      <path id="Path_5488" data-name="Path 5488" d="M253.9,64.38a1.643,1.643,0,0,1-.723,1.317,9.177,9.177,0,0,1-1,.608c-2.023,1.118-4.052,2.226-6.07,3.352a.454.454,0,0,1-.66-.088q-2.155-2.228-4.344-4.42c-.212-.214-.218-.33,0-.545q2.547-2.509,5.068-5.045a.407.407,0,0,1,.588-.082c2,1.133,4.005,2.249,6.009,3.372A1.84,1.84,0,0,1,253.9,64.38Z" fill="#fff"/>
    </g>
  </g>
</svg>
